<svg id="svg" version="1.1" xmlns="http://www.w3.org/2000/svg" xmlns:xlink="http://www.w3.org/1999/xlink" width="400" height="400" viewBox="0, 0, 400,400"><g id="svgg"><path id="path0" d="M274.400 82.259 C 272.090 83.232,269.930 84.138,269.600 84.273 C 269.270 84.408,268.370 84.780,267.600 85.100 C 266.830 85.420,264.670 86.298,262.800 87.051 C 260.930 87.804,259.040 88.585,258.600 88.786 C 257.263 89.399,252.346 91.434,249.800 92.427 C 248.480 92.942,247.220 93.486,247.000 93.635 C 246.780 93.784,244.440 94.757,241.800 95.796 C 239.160 96.836,236.460 97.947,235.800 98.265 C 235.140 98.583,232.530 99.663,230.000 100.665 C 227.470 101.667,224.860 102.747,224.200 103.065 C 223.540 103.383,220.930 104.463,218.400 105.466 C 215.870 106.468,213.080 107.624,212.200 108.035 C 211.320 108.447,208.530 109.624,206.000 110.651 C 203.470 111.679,198.610 113.677,195.200 115.092 C 191.790 116.507,187.470 118.284,185.600 119.042 C 183.730 119.800,181.840 120.587,181.400 120.792 C 180.447 121.236,178.580 122.007,174.000 123.851 C 172.130 124.604,170.240 125.387,169.800 125.592 C 168.847 126.036,166.980 126.807,162.400 128.651 C 160.530 129.404,158.640 130.187,158.200 130.392 C 157.247 130.836,155.380 131.607,150.800 133.451 C 148.930 134.204,147.040 134.985,146.600 135.186 C 145.387 135.742,140.499 137.772,137.800 138.840 C 132.510 140.934,132.049 141.596,133.564 144.922 C 133.984 145.845,135.160 148.670,136.176 151.200 C 137.193 153.730,138.191 156.160,138.394 156.600 C 138.840 157.564,139.630 159.476,141.451 164.000 C 142.204 165.870,142.985 167.760,143.186 168.200 C 143.799 169.537,145.834 174.454,146.827 177.000 C 147.342 178.320,147.893 179.581,148.050 179.803 C 148.208 180.025,148.598 180.925,148.917 181.803 C 149.817 184.278,152.363 190.529,152.751 191.214 C 152.943 191.551,153.952 193.981,154.993 196.614 C 156.035 199.246,157.224 202.120,157.635 203.000 C 161.961 212.260,162.637 215.333,160.500 216.021 C 159.675 216.287,158.820 216.639,158.600 216.805 C 158.380 216.970,155.950 218.015,153.200 219.127 C 150.450 220.238,145.320 222.344,141.800 223.806 C 138.280 225.268,133.060 227.428,130.200 228.607 C 127.340 229.785,122.120 231.945,118.600 233.407 C 115.080 234.868,110.670 236.684,108.800 237.442 C 106.930 238.200,105.040 238.987,104.600 239.192 C 103.685 239.617,102.022 240.307,97.200 242.258 C 93.160 243.893,91.216 244.722,90.400 245.159 C 89.491 245.646,89.456 247.807,90.326 249.705 C 90.754 250.637,91.468 252.300,91.913 253.400 C 94.135 258.898,94.873 260.659,95.221 261.295 C 95.430 261.677,95.847 262.667,96.149 263.495 C 97.100 266.105,99.586 272.171,100.002 272.895 C 100.221 273.277,100.647 274.267,100.949 275.095 C 101.900 277.705,104.386 283.771,104.802 284.495 C 105.021 284.877,105.447 285.867,105.749 286.695 C 106.471 288.675,109.075 295.077,109.778 296.600 C 110.083 297.260,110.814 298.970,111.401 300.400 C 111.989 301.830,112.724 303.567,113.035 304.260 C 113.346 304.954,113.601 305.674,113.602 305.860 C 113.604 306.047,113.888 306.740,114.235 307.400 C 114.582 308.060,115.097 309.230,115.381 310.000 C 117.966 317.009,119.306 319.600,120.349 319.600 C 120.898 319.600,127.156 317.219,129.800 316.004 C 130.774 315.556,132.727 314.750,137.200 312.949 C 139.070 312.196,140.960 311.415,141.400 311.214 C 142.737 310.601,147.654 308.566,150.200 307.573 C 151.520 307.058,152.780 306.514,153.000 306.365 C 153.220 306.216,155.560 305.243,158.200 304.204 C 160.840 303.164,163.540 302.053,164.200 301.735 C 164.860 301.417,167.470 300.337,170.000 299.335 C 172.530 298.333,175.140 297.253,175.800 296.935 C 176.460 296.617,179.070 295.537,181.600 294.534 C 184.130 293.532,186.920 292.376,187.800 291.965 C 188.680 291.553,191.470 290.376,194.000 289.349 C 196.530 288.321,201.390 286.323,204.800 284.908 C 208.210 283.493,212.530 281.716,214.400 280.958 C 216.270 280.200,218.160 279.413,218.600 279.208 C 219.553 278.764,221.420 277.993,226.000 276.149 C 227.870 275.396,229.760 274.613,230.200 274.408 C 231.153 273.964,233.020 273.193,237.600 271.349 C 239.470 270.596,241.360 269.813,241.800 269.608 C 242.753 269.164,244.620 268.393,249.200 266.549 C 251.070 265.796,252.960 265.015,253.400 264.814 C 254.613 264.258,259.501 262.228,262.200 261.160 C 267.490 259.066,267.951 258.404,266.436 255.078 C 266.016 254.155,264.840 251.330,263.824 248.800 C 262.807 246.270,261.809 243.840,261.606 243.400 C 261.160 242.436,260.370 240.524,258.549 236.000 C 257.796 234.130,257.015 232.240,256.814 231.800 C 256.201 230.463,254.166 225.546,253.173 223.000 C 252.658 221.680,252.107 220.419,251.950 220.197 C 251.792 219.975,251.402 219.075,251.083 218.197 C 250.183 215.722,247.637 209.471,247.249 208.786 C 247.057 208.449,246.048 206.019,245.007 203.386 C 243.965 200.754,242.776 197.880,242.365 197.000 C 238.039 187.740,237.363 184.667,239.500 183.979 C 240.325 183.713,241.180 183.361,241.400 183.195 C 241.620 183.030,244.050 181.985,246.800 180.873 C 249.550 179.762,254.680 177.656,258.200 176.194 C 261.720 174.732,266.940 172.572,269.800 171.393 C 272.660 170.215,277.880 168.055,281.400 166.593 C 284.920 165.132,289.330 163.316,291.200 162.558 C 293.070 161.800,294.960 161.013,295.400 160.808 C 296.315 160.383,297.978 159.693,302.800 157.742 C 306.840 156.107,308.784 155.278,309.600 154.841 C 310.509 154.354,310.544 152.193,309.674 150.295 C 309.246 149.363,308.532 147.700,308.087 146.600 C 305.865 141.102,305.127 139.341,304.779 138.705 C 304.570 138.323,304.153 137.333,303.851 136.505 C 302.900 133.895,300.414 127.829,299.998 127.105 C 299.779 126.723,299.353 125.733,299.051 124.905 C 298.100 122.295,295.614 116.229,295.198 115.505 C 294.979 115.123,294.553 114.133,294.251 113.305 C 293.529 111.325,290.925 104.923,290.222 103.400 C 289.917 102.740,289.186 101.030,288.599 99.600 C 288.011 98.170,287.296 96.460,287.010 95.800 C 286.723 95.140,286.357 94.150,286.196 93.600 C 286.034 93.050,285.758 92.419,285.582 92.197 C 285.407 91.975,285.002 91.075,284.683 90.197 C 283.529 87.022,281.133 81.402,280.722 80.906 C 280.064 80.113,278.912 80.360,274.400 82.259 " stroke="none" fill="#fafafb" fill-rule="evenodd"></path><path id="path1" d="M0.000 200.000 L 0.000 400.000 200.000 400.000 L 400.000 400.000 400.000 200.000 L 400.000 0.000 200.000 0.000 L 0.000 0.000 0.000 200.000 M280.722 80.906 C 281.133 81.402,283.529 87.022,284.683 90.197 C 285.002 91.075,285.407 91.975,285.582 92.197 C 285.758 92.419,286.034 93.050,286.196 93.600 C 286.357 94.150,286.723 95.140,287.010 95.800 C 287.296 96.460,288.011 98.170,288.599 99.600 C 289.186 101.030,289.917 102.740,290.222 103.400 C 290.925 104.923,293.529 111.325,294.251 113.305 C 294.553 114.133,294.979 115.123,295.198 115.505 C 295.614 116.229,298.100 122.295,299.051 124.905 C 299.353 125.733,299.779 126.723,299.998 127.105 C 300.414 127.829,302.900 133.895,303.851 136.505 C 304.153 137.333,304.570 138.323,304.779 138.705 C 305.127 139.341,305.865 141.102,308.087 146.600 C 308.532 147.700,309.246 149.363,309.674 150.295 C 310.544 152.193,310.509 154.354,309.600 154.841 C 308.784 155.278,306.840 156.107,302.800 157.742 C 297.978 159.693,296.315 160.383,295.400 160.808 C 294.960 161.013,293.070 161.800,291.200 162.558 C 289.330 163.316,284.920 165.132,281.400 166.593 C 277.880 168.055,272.660 170.215,269.800 171.393 C 266.940 172.572,261.720 174.732,258.200 176.194 C 254.680 177.656,249.550 179.762,246.800 180.873 C 244.050 181.985,241.620 183.030,241.400 183.195 C 241.180 183.361,240.325 183.713,239.500 183.979 C 237.363 184.667,238.039 187.740,242.365 197.000 C 242.776 197.880,243.965 200.754,245.007 203.386 C 246.048 206.019,247.057 208.449,247.249 208.786 C 247.637 209.471,250.183 215.722,251.083 218.197 C 251.402 219.075,251.792 219.975,251.950 220.197 C 252.107 220.419,252.658 221.680,253.173 223.000 C 254.166 225.546,256.201 230.463,256.814 231.800 C 257.015 232.240,257.796 234.130,258.549 236.000 C 260.370 240.524,261.160 242.436,261.606 243.400 C 261.809 243.840,262.807 246.270,263.824 248.800 C 264.840 251.330,266.016 254.155,266.436 255.078 C 267.951 258.404,267.490 259.066,262.200 261.160 C 259.501 262.228,254.613 264.258,253.400 264.814 C 252.960 265.015,251.070 265.796,249.200 266.549 C 244.620 268.393,242.753 269.164,241.800 269.608 C 241.360 269.813,239.470 270.596,237.600 271.349 C 233.020 273.193,231.153 273.964,230.200 274.408 C 229.760 274.613,227.870 275.396,226.000 276.149 C 221.420 277.993,219.553 278.764,218.600 279.208 C 218.160 279.413,216.270 280.200,214.400 280.958 C 212.530 281.716,208.210 283.493,204.800 284.908 C 201.390 286.323,196.530 288.321,194.000 289.349 C 191.470 290.376,188.680 291.553,187.800 291.965 C 186.920 292.376,184.130 293.532,181.600 294.534 C 179.070 295.537,176.460 296.617,175.800 296.935 C 175.140 297.253,172.530 298.333,170.000 299.335 C 167.470 300.337,164.860 301.417,164.200 301.735 C 163.540 302.053,160.840 303.164,158.200 304.204 C 155.560 305.243,153.220 306.216,153.000 306.365 C 152.780 306.514,151.520 307.058,150.200 307.573 C 147.654 308.566,142.737 310.601,141.400 311.214 C 140.960 311.415,139.070 312.196,137.200 312.949 C 132.727 314.750,130.774 315.556,129.800 316.004 C 127.156 317.219,120.898 319.600,120.349 319.600 C 119.306 319.600,117.966 317.009,115.381 310.000 C 115.097 309.230,114.582 308.060,114.235 307.400 C 113.888 306.740,113.604 306.047,113.602 305.860 C 113.601 305.674,113.346 304.954,113.035 304.260 C 112.724 303.567,111.989 301.830,111.401 300.400 C 110.814 298.970,110.083 297.260,109.778 296.600 C 109.075 295.077,106.471 288.675,105.749 286.695 C 105.447 285.867,105.021 284.877,104.802 284.495 C 104.386 283.771,101.900 277.705,100.949 275.095 C 100.647 274.267,100.221 273.277,100.002 272.895 C 99.586 272.171,97.100 266.105,96.149 263.495 C 95.847 262.667,95.430 261.677,95.221 261.295 C 94.873 260.659,94.135 258.898,91.913 253.400 C 91.468 252.300,90.754 250.637,90.326 249.705 C 89.456 247.807,89.491 245.646,90.400 245.159 C 91.216 244.722,93.160 243.893,97.200 242.258 C 102.022 240.307,103.685 239.617,104.600 239.192 C 105.040 238.987,106.930 238.200,108.800 237.442 C 110.670 236.684,115.080 234.868,118.600 233.407 C 122.120 231.945,127.340 229.785,130.200 228.607 C 133.060 227.428,138.280 225.268,141.800 223.806 C 145.320 222.344,150.450 220.238,153.200 219.127 C 155.950 218.015,158.380 216.970,158.600 216.805 C 158.820 216.639,159.675 216.287,160.500 216.021 C 162.637 215.333,161.961 212.260,157.635 203.000 C 157.224 202.120,156.035 199.246,154.993 196.614 C 153.952 193.981,152.943 191.551,152.751 191.214 C 152.363 190.529,149.817 184.278,148.917 181.803 C 148.598 180.925,148.208 180.025,148.050 179.803 C 147.893 179.581,147.342 178.320,146.827 177.000 C 145.834 174.454,143.799 169.537,143.186 168.200 C 142.985 167.760,142.204 165.870,141.451 164.000 C 139.630 159.476,138.840 157.564,138.394 156.600 C 138.191 156.160,137.193 153.730,136.176 151.200 C 135.160 148.670,133.984 145.845,133.564 144.922 C 132.049 141.596,132.510 140.934,137.800 138.840 C 140.499 137.772,145.387 135.742,146.600 135.186 C 147.040 134.985,148.930 134.204,150.800 133.451 C 155.380 131.607,157.247 130.836,158.200 130.392 C 158.640 130.187,160.530 129.404,162.400 128.651 C 166.980 126.807,168.847 126.036,169.800 125.592 C 170.240 125.387,172.130 124.604,174.000 123.851 C 178.580 122.007,180.447 121.236,181.400 120.792 C 181.840 120.587,183.730 119.800,185.600 119.042 C 187.470 118.284,191.790 116.507,195.200 115.092 C 198.610 113.677,203.470 111.679,206.000 110.651 C 208.530 109.624,211.320 108.447,212.200 108.035 C 213.080 107.624,215.870 106.468,218.400 105.466 C 220.930 104.463,223.540 103.383,224.200 103.065 C 224.860 102.747,227.470 101.667,230.000 100.665 C 232.530 99.663,235.140 98.583,235.800 98.265 C 236.460 97.947,239.160 96.836,241.800 95.796 C 244.440 94.757,246.780 93.784,247.000 93.635 C 247.220 93.486,248.480 92.942,249.800 92.427 C 252.346 91.434,257.263 89.399,258.600 88.786 C 259.040 88.585,260.930 87.804,262.800 87.051 C 264.670 86.298,266.830 85.420,267.600 85.100 C 268.370 84.780,269.270 84.408,269.600 84.273 C 269.930 84.138,272.090 83.232,274.400 82.259 C 278.912 80.360,280.064 80.113,280.722 80.906 " stroke="none" fill="#2363ec" fill-rule="evenodd"></path></g></svg>